# xmcd CD database file
#
# Track frame offsets:
#	150
#	16269
#	40067
#	60539
#	73859
#	93062
#	115964
#	135680
#	167589
#	197915
#	223795
#	237466
#	271588
#
# Disc length: 4289 seconds
#
# Revision: 0
# Processed by: cddbd v1.5.2PL0 Copyright (c) Steve Scherf et al.
# Submitted via: CDex 1.70beta2
#
DISCID=b410bf0d
DTITLE=Jazz People - Jazz People March Sampler
DYEAR=2009
DGENRE=Jazz
TTITLE0=Hey Bob(WInterplay)
TTITLE1=Best Wishes (Gentle Rain)
TTITLE2=Falling Slowly (Prellude)
TTITLE3=My Heart Belongs to Daddy (웅산)
TTITLE4=Sing Sing Sing (Jazz Park Bigband)
TTITLE5=하늘 높이 (민경인)
TTITLE6=Isn't She Lovely (Chris Varga)
TTITLE7=Waltz for Debby (양준호 트리오)
TTITLE8=Manager Craig (서영도)
TTITLE9=Into A New Groove (남경윤)
TTITLE10=Every Time We Say Goodbye (Charlie Jung)
TTITLE11=Autumn Rhythm (오정수)
TTITLE12=이어도는 땅 위에 있다 (박재천 and 미연)
EXTD=YEAR: 2009
EXTT0=
EXTT1=
EXTT2=
EXTT3=
EXTT4=
EXTT5=
EXTT6=
EXTT7=
EXTT8=
EXTT9=
EXTT10=
EXTT11=
EXTT12=
PLAYORDER=
